solid OpenSCAD_Model
  facet normal -1 -0 -0
    outer loop
      vertex 0 0 0
      vertex 0 0 1
      vertex 0 17.001 0
    endloop
  endfacet
  facet normal -1 0 0
    outer loop
      vertex 0 17.001 0
      vertex 0 0 1
      vertex 0 1 1
    endloop
  endfacet
  facet normal -1 0 0
    outer loop
      vertex 0 3.001 1
      vertex 0 1 1
      vertex 0 1 2
    endloop
  endfacet
  facet normal -1 0 0
    outer loop
      vertex 0 17.001 0
      vertex 0 1 1
      vertex 0 3.001 1
    endloop
  endfacet
  facet normal -1 0 0
    outer loop
      vertex 0 17.001 0
      vertex 0 3.001 1
      vertex 0 5 1
    endloop
  endfacet
  facet normal -1 0 0
    outer loop
      vertex 0 10 2
      vertex 0 12.001 1
      vertex 0 10 1
    endloop
  endfacet
  facet normal -1 0 0
    outer loop
      vertex 0 7.001 1
      vertex 0 5 2
      vertex 0 7.001 2
    endloop
  endfacet
  facet normal -1 0 0
    outer loop
      vertex 0 17.001 0
      vertex 0 5 1
      vertex 0 7.001 1
    endloop
  endfacet
  facet normal -1 0 0
    outer loop
      vertex 0 5 2
      vertex 0 7.001 1
      vertex 0 5 1
    endloop
  endfacet
  facet normal -1 0 0
    outer loop
      vertex 0 12.001 1
      vertex 0 17.001 0
      vertex 0 10 1
    endloop
  endfacet
  facet normal -1 0 0
    outer loop
      vertex 0 12.001 1
      vertex 0 10 2
      vertex 0 12.001 2
    endloop
  endfacet
  facet normal -1 0 0
    outer loop
      vertex 0 15.001 1
      vertex 0 17.001 0
      vertex 0 14 1
    endloop
  endfacet
  facet normal -1 0 0
    outer loop
      vertex 0 14 2
      vertex 0 15.001 1
      vertex 0 14 1
    endloop
  endfacet
  facet normal -1 0 0
    outer loop
      vertex 0 15.001 1
      vertex 0 14 2
      vertex 0 15.001 2
    endloop
  endfacet
  facet normal -1 0 0
    outer loop
      vertex 0 17.001 1
      vertex 0 17.001 0
      vertex 0 15.001 1
    endloop
  endfacet
  facet normal -1 0 0
    outer loop
      vertex 0 3.001 1
      vertex 0 1 2
      vertex 0 3.001 2
    endloop
  endfacet
  facet normal -1 0 0
    outer loop
      vertex 0 10 1
      vertex 0 17.001 0
      vertex 0 7.001 1
    endloop
  endfacet
  facet normal -1 0 0
    outer loop
      vertex 0 14 1
      vertex 0 17.001 0
      vertex 0 12.001 1
    endloop
  endfacet
  facet normal 0 -1 0
    outer loop
      vertex 0 0 1
      vertex 0 0 0
      vertex 4.001 0 0
    endloop
  endfacet
  facet normal 0 -1 0
    outer loop
      vertex 1 0 1
      vertex 0 0 1
      vertex 4.001 0 0
    endloop
  endfacet
  facet normal 0 -1 0
    outer loop
      vertex 3.001 0 1
      vertex 1 0 1
      vertex 4.001 0 0
    endloop
  endfacet
  facet normal 0 -1 0
    outer loop
      vertex 4.001 0 1
      vertex 3.001 0 1
      vertex 4.001 0 0
    endloop
  endfacet
  facet normal 0 -1 0
    outer loop
      vertex 3.001 0 2
      vertex 1 0 1
      vertex 3.001 0 1
    endloop
  endfacet
  facet normal 0 -1 0
    outer loop
      vertex 1 0 2
      vertex 1 0 1
      vertex 3.001 0 2
    endloop
  endfacet
  facet normal -0 -0 -1
    outer loop
      vertex 0 0 0
      vertex 0 17.001 0
      vertex 4.001 0 0
    endloop
  endfacet
  facet normal 0 0 -1
    outer loop
      vertex 4.001 0 0
      vertex 0 17.001 0
      vertex 4.001 17.001 0
    endloop
  endfacet
  facet normal 0 1 0
    outer loop
      vertex 0 17.001 0
      vertex 0 17.001 1
      vertex 4.001 17.001 0
    endloop
  endfacet
  facet normal 0 1 0
    outer loop
      vertex 4.001 17.001 0
      vertex 0 17.001 1
      vertex 3 17.001 1
    endloop
  endfacet
  facet normal 0 1 0
    outer loop
      vertex 4.001 17.001 0
      vertex 3 17.001 1
      vertex 3 17.001 2
    endloop
  endfacet
  facet normal 0 1 0
    outer loop
      vertex 4.001 17.001 0
      vertex 3 17.001 2
      vertex 4.001 17.001 2
    endloop
  endfacet
  facet normal 0 -0 1
    outer loop
      vertex 0 17.001 1
      vertex 0 15.001 1
      vertex 3 15.001 1
    endloop
  endfacet
  facet normal 0 0 1
    outer loop
      vertex 3 17.001 1
      vertex 0 17.001 1
      vertex 3 15.001 1
    endloop
  endfacet
  facet normal 0 1 0
    outer loop
      vertex 0 15.001 1
      vertex 0 15.001 2
      vertex 3 15.001 1
    endloop
  endfacet
  facet normal 0 1 0
    outer loop
      vertex 3 15.001 1
      vertex 0 15.001 2
      vertex 3 15.001 2
    endloop
  endfacet
  facet normal 0 -0 1
    outer loop
      vertex 0 15.001 2
      vertex 0 14 2
      vertex 4.001 14 2
    endloop
  endfacet
  facet normal 0 -0 1
    outer loop
      vertex 3 15.001 2
      vertex 0 15.001 2
      vertex 4.001 14 2
    endloop
  endfacet
  facet normal 0 0 1
    outer loop
      vertex 4.001 17.001 2
      vertex 3 15.001 2
      vertex 4.001 14 2
    endloop
  endfacet
  facet normal 0 -0 1
    outer loop
      vertex 3 17.001 2
      vertex 3 15.001 2
      vertex 4.001 17.001 2
    endloop
  endfacet
  facet normal 0 -1 0
    outer loop
      vertex 0 14 2
      vertex 0 14 1
      vertex 4.001 14 1
    endloop
  endfacet
  facet normal 0 -1 0
    outer loop
      vertex 4.001 14 2
      vertex 0 14 2
      vertex 4.001 14 1
    endloop
  endfacet
  facet normal 0 -0 1
    outer loop
      vertex 0 14 1
      vertex 0 12.001 1
      vertex 1 12.001 1
    endloop
  endfacet
  facet normal -0 0 1
    outer loop
      vertex 3.001 13.001 1
      vertex 0 14 1
      vertex 1 13.001 1
    endloop
  endfacet
  facet normal -0 0 1
    outer loop
      vertex 1 13.001 1
      vertex 0 14 1
      vertex 1 12.001 1
    endloop
  endfacet
  facet normal 0 0 1
    outer loop
      vertex 4.001 14 1
      vertex 0 14 1
      vertex 3.001 13.001 1
    endloop
  endfacet
  facet normal -0 0 1
    outer loop
      vertex 4.001 12.001 1
      vertex 3.001 13.001 1
      vertex 3.001 12.001 1
    endloop
  endfacet
  facet normal 0 0 1
    outer loop
      vertex 4.001 14 1
      vertex 3.001 13.001 1
      vertex 4.001 12.001 1
    endloop
  endfacet
  facet normal 0 1 0
    outer loop
      vertex 0 12.001 1
      vertex 0 12.001 2
      vertex 1 12.001 1
    endloop
  endfacet
  facet normal 0 1 0
    outer loop
      vertex 1 12.001 1
      vertex 0 12.001 2
      vertex 1 12.001 2
    endloop
  endfacet
  facet normal 0 0 1
    outer loop
      vertex 1.001 12 2
      vertex 3 12 2
      vertex 1 12.001 2
    endloop
  endfacet
  facet normal 0 -0 1
    outer loop
      vertex 0 12.001 2
      vertex 0 10 2
      vertex 1 10 2
    endloop
  endfacet
  facet normal -0 0 1
    outer loop
      vertex 1.001 10.001 2
      vertex 0 12.001 2
      vertex 1 10 2
    endloop
  endfacet
  facet normal 0 0 1
    outer loop
      vertex 1 9 2
      vertex 3.001 9 2
      vertex 1 10 2
    endloop
  endfacet
  facet normal 0 0 1
    outer loop
      vertex 3 12 2
      vertex 3.001 12.001 2
      vertex 1 12.001 2
    endloop
  endfacet
  facet normal 0 0 1
    outer loop
      vertex 4.001 10 2
      vertex 4.001 12.001 2
      vertex 3.001 12.001 2
    endloop
  endfacet
  facet normal 0 0 1
    outer loop
      vertex 3 10.001 2
      vertex 3.001 9 2
      vertex 3.001 10 2
    endloop
  endfacet
  facet normal 0 0 1
    outer loop
      vertex 1.001 12 2
      vertex 1 12.001 2
      vertex 0 12.001 2
    endloop
  endfacet
  facet normal -0 0 1
    outer loop
      vertex 3.001 12.001 2
      vertex 3.001 13.001 2
      vertex 1 12.001 2
    endloop
  endfacet
  facet normal 0 0 1
    outer loop
      vertex 3.001 9 2
      vertex 1.001 10.001 2
      vertex 1 10 2
    endloop
  endfacet
  facet normal 0 -0 1
    outer loop
      vertex 3 12 2
      vertex 3 10.001 2
      vertex 4.001 10 2
    endloop
  endfacet
  facet normal 0 0 1
    outer loop
      vertex 4.001 10 2
      vertex 3.001 12.001 2
      vertex 3 12 2
    endloop
  endfacet
  facet normal 0 0 1
    outer loop
      vertex 1.001 10.001 2
      vertex 1.001 12 2
      vertex 0 12.001 2
    endloop
  endfacet
  facet normal 0 0 1
    outer loop
      vertex 3.001 10 2
      vertex 4.001 10 2
      vertex 3 10.001 2
    endloop
  endfacet
  facet normal 0 -0 1
    outer loop
      vertex 1 13.001 2
      vertex 1 12.001 2
      vertex 3.001 13.001 2
    endloop
  endfacet
  facet normal 0 -0 1
    outer loop
      vertex 3 10.001 2
      vertex 1.001 10.001 2
      vertex 3.001 9 2
    endloop
  endfacet
  facet normal 0 -1 0
    outer loop
      vertex 0 10 2
      vertex 0 10 1
      vertex 1 10 1
    endloop
  endfacet
  facet normal 0 -1 0
    outer loop
      vertex 1 10 2
      vertex 0 10 2
      vertex 1 10 1
    endloop
  endfacet
  facet normal 0 -0 1
    outer loop
      vertex 0 10 1
      vertex 0 7.001 1
      vertex 1 7.001 1
    endloop
  endfacet
  facet normal -0 0 1
    outer loop
      vertex 1 9 1
      vertex 0 10 1
      vertex 1 8.001 1
    endloop
  endfacet
  facet normal -0 0 1
    outer loop
      vertex 1 8.001 1
      vertex 0 10 1
      vertex 1 7.001 1
    endloop
  endfacet
  facet normal 0 0 1
    outer loop
      vertex 1 9 1
      vertex 1 10 1
      vertex 0 10 1
    endloop
  endfacet
  facet normal -0 0 1
    outer loop
      vertex 4.001 7.001 1
      vertex 3.001 8.001 1
      vertex 3.001 7.001 1
    endloop
  endfacet
  facet normal 0 0 1
    outer loop
      vertex 4.001 10 1
      vertex 3.001 8.001 1
      vertex 4.001 7.001 1
    endloop
  endfacet
  facet normal 0 0 1
    outer loop
      vertex 4.001 10 1
      vertex 3.001 9 1
      vertex 3.001 8.001 1
    endloop
  endfacet
  facet normal 0 0 1
    outer loop
      vertex 4.001 10 1
      vertex 3.001 10 1
      vertex 3.001 9 1
    endloop
  endfacet
  facet normal -0 0 1
    outer loop
      vertex 3.001 8.001 1
      vertex 1 9 1
      vertex 1 8.001 1
    endloop
  endfacet
  facet normal 0 0 1
    outer loop
      vertex 3.001 9 1
      vertex 1 9 1
      vertex 3.001 8.001 1
    endloop
  endfacet
  facet normal 0 1 0
    outer loop
      vertex 0 7.001 1
      vertex 0 7.001 2
      vertex 1 7.001 1
    endloop
  endfacet
  facet normal 0 1 0
    outer loop
      vertex 1 7.001 1
      vertex 0 7.001 2
      vertex 1 7.001 2
    endloop
  endfacet
  facet normal 0 0 1
    outer loop
      vertex 1.001 7 2
      vertex 3 7 2
      vertex 1 7.001 2
    endloop
  endfacet
  facet normal 0 -0 1
    outer loop
      vertex 0 7.001 2
      vertex 0 5 2
      vertex 1 5 2
    endloop
  endfacet
  facet normal -0 0 1
    outer loop
      vertex 1.001 5.001 2
      vertex 0 7.001 2
      vertex 1 5 2
    endloop
  endfacet
  facet normal 0 0 1
    outer loop
      vertex 1 4 2
      vertex 3.001 4 2
      vertex 1 5 2
    endloop
  endfacet
  facet normal 0 0 1
    outer loop
      vertex 3 7 2
      vertex 3.001 7.001 2
      vertex 1 7.001 2
    endloop
  endfacet
  facet normal 0 0 1
    outer loop
      vertex 4.001 5 2
      vertex 4.001 7.001 2
      vertex 3.001 7.001 2
    endloop
  endfacet
  facet normal 0 0 1
    outer loop
      vertex 3 5.001 2
      vertex 3.001 4 2
      vertex 3.001 5 2
    endloop
  endfacet
  facet normal 0 0 1
    outer loop
      vertex 1.001 7 2
      vertex 1 7.001 2
      vertex 0 7.001 2
    endloop
  endfacet
  facet normal -0 0 1
    outer loop
      vertex 3.001 7.001 2
      vertex 3.001 8.001 2
      vertex 1 7.001 2
    endloop
  endfacet
  facet normal 0 0 1
    outer loop
      vertex 3.001 4 2
      vertex 1.001 5.001 2
      vertex 1 5 2
    endloop
  endfacet
  facet normal 0 -0 1
    outer loop
      vertex 3 7 2
      vertex 3 5.001 2
      vertex 4.001 5 2
    endloop
  endfacet
  facet normal 0 0 1
    outer loop
      vertex 4.001 5 2
      vertex 3.001 7.001 2
      vertex 3 7 2
    endloop
  endfacet
  facet normal 0 0 1
    outer loop
      vertex 1.001 5.001 2
      vertex 1.001 7 2
      vertex 0 7.001 2
    endloop
  endfacet
  facet normal 0 0 1
    outer loop
      vertex 3.001 5 2
      vertex 4.001 5 2
      vertex 3 5.001 2
    endloop
  endfacet
  facet normal 0 -0 1
    outer loop
      vertex 1 8.001 2
      vertex 1 7.001 2
      vertex 3.001 8.001 2
    endloop
  endfacet
  facet normal 0 -0 1
    outer loop
      vertex 3 5.001 2
      vertex 1.001 5.001 2
      vertex 3.001 4 2
    endloop
  endfacet
  facet normal 0 -1 0
    outer loop
      vertex 0 5 2
      vertex 0 5 1
      vertex 1 5 1
    endloop
  endfacet
  facet normal 0 -1 0
    outer loop
      vertex 1 5 2
      vertex 0 5 2
      vertex 1 5 1
    endloop
  endfacet
  facet normal 0 0 1
    outer loop
      vertex 1 4 1
      vertex 1 5 1
      vertex 0 5 1
    endloop
  endfacet
  facet normal 0 -0 1
    outer loop
      vertex 0 5 1
      vertex 0 3.001 1
      vertex 1.001 3.001 1
    endloop
  endfacet
  facet normal 0 0 1
    outer loop
      vertex 3 1.001 1
      vertex 0 5 1
      vertex 1.001 3.001 1
    endloop
  endfacet
  facet normal 0 0 1
    outer loop
      vertex 1.001 1.001 1
      vertex 3 1.001 1
      vertex 1.001 3.001 1
    endloop
  endfacet
  facet normal 0 0 1
    outer loop
      vertex 4.001 3.001 1
      vertex 4.001 5 1
      vertex 3.001 5 1
    endloop
  endfacet
  facet normal 0 0 1
    outer loop
      vertex 4.001 3.001 1
      vertex 3.001 5 1
      vertex 3.001 4 1
    endloop
  endfacet
  facet normal 0 0 1
    outer loop
      vertex 3 1.001 1
      vertex 1 4 1
      vertex 0 5 1
    endloop
  endfacet
  facet normal 0 0 1
    outer loop
      vertex 3 1.001 1
      vertex 3 3.001 1
      vertex 1 4 1
    endloop
  endfacet
  facet normal 0 -0 1
    outer loop
      vertex 3.001 4 1
      vertex 3 3.001 1
      vertex 4.001 3.001 1
    endloop
  endfacet
  facet normal 0 0 1
    outer loop
      vertex 3.001 4 1
      vertex 1 4 1
      vertex 3 3.001 1
    endloop
  endfacet
  facet normal 0 1 0
    outer loop
      vertex 0 3.001 1
      vertex 0 3.001 2
      vertex 1.001 3.001 1
    endloop
  endfacet
  facet normal 0 1 0
    outer loop
      vertex 1.001 3.001 1
      vertex 0 3.001 2
      vertex 1.001 3.001 2
    endloop
  endfacet
  facet normal 0 -0 1
    outer loop
      vertex 0 3.001 2
      vertex 0 1 2
      vertex 1 1 2
    endloop
  endfacet
  facet normal -0 0 1
    outer loop
      vertex 1.001 1.001 2
      vertex 0 3.001 2
      vertex 1 1 2
    endloop
  endfacet
  facet normal 0 0 1
    outer loop
      vertex 1 0 2
      vertex 3.001 0 2
      vertex 1 1 2
    endloop
  endfacet
  facet normal 0 0 1
    outer loop
      vertex 1.001 1.001 2
      vertex 1.001 3.001 2
      vertex 0 3.001 2
    endloop
  endfacet
  facet normal 0 0 1
    outer loop
      vertex 4.001 1 2
      vertex 4.001 3.001 2
      vertex 3 3.001 2
    endloop
  endfacet
  facet normal 0 0 1
    outer loop
      vertex 3.001 1 2
      vertex 4.001 1 2
      vertex 3 1.001 2
    endloop
  endfacet
  facet normal 0 0 1
    outer loop
      vertex 3.001 0 2
      vertex 1.001 1.001 2
      vertex 1 1 2
    endloop
  endfacet
  facet normal 0 0 1
    outer loop
      vertex 3 1.001 2
      vertex 3.001 0 2
      vertex 3.001 1 2
    endloop
  endfacet
  facet normal 0 -0 1
    outer loop
      vertex 3 1.001 2
      vertex 1.001 1.001 2
      vertex 3.001 0 2
    endloop
  endfacet
  facet normal 0 -0 1
    outer loop
      vertex 3 3.001 2
      vertex 3 1.001 2
      vertex 4.001 1 2
    endloop
  endfacet
  facet normal 0 -1 0
    outer loop
      vertex 0 1 2
      vertex 0 1 1
      vertex 1 1 1
    endloop
  endfacet
  facet normal 0 -1 0
    outer loop
      vertex 1 1 2
      vertex 0 1 2
      vertex 1 1 1
    endloop
  endfacet
  facet normal 0 -0 1
    outer loop
      vertex 0 1 1
      vertex 0 0 1
      vertex 1 0 1
    endloop
  endfacet
  facet normal 0 0 1
    outer loop
      vertex 1 1 1
      vertex 0 1 1
      vertex 1 0 1
    endloop
  endfacet
  facet normal -1 -0 -0
    outer loop
      vertex 1 0 1
      vertex 1 0 2
      vertex 1 1 1
    endloop
  endfacet
  facet normal -1 0 0
    outer loop
      vertex 1 1 1
      vertex 1 0 2
      vertex 1 1 2
    endloop
  endfacet
  facet normal 1 0 -0
    outer loop
      vertex 3.001 0 2
      vertex 3.001 0 1
      vertex 3.001 1 1
    endloop
  endfacet
  facet normal 1 0 0
    outer loop
      vertex 3.001 1 2
      vertex 3.001 0 2
      vertex 3.001 1 1
    endloop
  endfacet
  facet normal 0 -0 1
    outer loop
      vertex 3.001 1 1
      vertex 3.001 0 1
      vertex 4.001 0 1
    endloop
  endfacet
  facet normal 0 0 1
    outer loop
      vertex 4.001 1 1
      vertex 3.001 1 1
      vertex 4.001 0 1
    endloop
  endfacet
  facet normal 1 0 -0
    outer loop
      vertex 4.001 0 1
      vertex 4.001 0 0
      vertex 4.001 17.001 0
    endloop
  endfacet
  facet normal 1 0 -0
    outer loop
      vertex 4.001 14 1
      vertex 4.001 12.001 1
      vertex 4.001 17.001 0
    endloop
  endfacet
  facet normal 1 0 0
    outer loop
      vertex 4.001 17.001 2
      vertex 4.001 14 1
      vertex 4.001 17.001 0
    endloop
  endfacet
  facet normal 1 0 -0
    outer loop
      vertex 4.001 12.001 1
      vertex 4.001 10 1
      vertex 4.001 17.001 0
    endloop
  endfacet
  facet normal 1 0 -0
    outer loop
      vertex 4.001 10 1
      vertex 4.001 7.001 1
      vertex 4.001 17.001 0
    endloop
  endfacet
  facet normal 1 0 -0
    outer loop
      vertex 4.001 1 2
      vertex 4.001 1 1
      vertex 4.001 3.001 2
    endloop
  endfacet
  facet normal 1 -0 0
    outer loop
      vertex 4.001 7.001 1
      vertex 4.001 7.001 2
      vertex 4.001 5 1
    endloop
  endfacet
  facet normal 1 0 -0
    outer loop
      vertex 4.001 7.001 1
      vertex 4.001 5 1
      vertex 4.001 17.001 0
    endloop
  endfacet
  facet normal 1 0 -0
    outer loop
      vertex 4.001 5 1
      vertex 4.001 3.001 1
      vertex 4.001 17.001 0
    endloop
  endfacet
  facet normal 1 0 -0
    outer loop
      vertex 4.001 3.001 1
      vertex 4.001 1 1
      vertex 4.001 17.001 0
    endloop
  endfacet
  facet normal 1 -0 0
    outer loop
      vertex 4.001 3.001 1
      vertex 4.001 3.001 2
      vertex 4.001 1 1
    endloop
  endfacet
  facet normal 1 0 -0
    outer loop
      vertex 4.001 1 1
      vertex 4.001 0 1
      vertex 4.001 17.001 0
    endloop
  endfacet
  facet normal 1 -0 0
    outer loop
      vertex 4.001 12.001 1
      vertex 4.001 12.001 2
      vertex 4.001 10 1
    endloop
  endfacet
  facet normal 1 0 -0
    outer loop
      vertex 4.001 5 2
      vertex 4.001 5 1
      vertex 4.001 7.001 2
    endloop
  endfacet
  facet normal 1 0 -0
    outer loop
      vertex 4.001 10 2
      vertex 4.001 10 1
      vertex 4.001 12.001 2
    endloop
  endfacet
  facet normal 1 0 -0
    outer loop
      vertex 4.001 14 2
      vertex 4.001 14 1
      vertex 4.001 17.001 2
    endloop
  endfacet
  facet normal -1 -0 -0
    outer loop
      vertex 3 15.001 1
      vertex 3 15.001 2
      vertex 3 17.001 1
    endloop
  endfacet
  facet normal -1 0 0
    outer loop
      vertex 3 17.001 1
      vertex 3 15.001 2
      vertex 3 17.001 2
    endloop
  endfacet
  facet normal 0 1 0
    outer loop
      vertex 3.001 12.001 1
      vertex 3.001 12.001 2
      vertex 4.001 12.001 1
    endloop
  endfacet
  facet normal 0 1 0
    outer loop
      vertex 4.001 12.001 1
      vertex 3.001 12.001 2
      vertex 4.001 12.001 2
    endloop
  endfacet
  facet normal 1 0 -0
    outer loop
      vertex 3.001 12.001 2
      vertex 3.001 12.001 1
      vertex 3.001 13.001 1
    endloop
  endfacet
  facet normal 1 0 0
    outer loop
      vertex 3.001 13.001 2
      vertex 3.001 12.001 2
      vertex 3.001 13.001 1
    endloop
  endfacet
  facet normal 0 1 0
    outer loop
      vertex 1 13.001 1
      vertex 1 13.001 2
      vertex 3.001 13.001 1
    endloop
  endfacet
  facet normal 0 1 0
    outer loop
      vertex 3.001 13.001 1
      vertex 1 13.001 2
      vertex 3.001 13.001 2
    endloop
  endfacet
  facet normal -1 -0 -0
    outer loop
      vertex 1 12.001 1
      vertex 1 12.001 2
      vertex 1 13.001 1
    endloop
  endfacet
  facet normal -1 0 0
    outer loop
      vertex 1 13.001 1
      vertex 1 12.001 2
      vertex 1 13.001 2
    endloop
  endfacet
  facet normal 0 -1 0
    outer loop
      vertex 3.001 10 2
      vertex 3.001 10 1
      vertex 4.001 10 1
    endloop
  endfacet
  facet normal 0 -1 0
    outer loop
      vertex 4.001 10 2
      vertex 3.001 10 2
      vertex 4.001 10 1
    endloop
  endfacet
  facet normal 1 0 -0
    outer loop
      vertex 3.001 9 2
      vertex 3.001 9 1
      vertex 3.001 10 1
    endloop
  endfacet
  facet normal 1 0 0
    outer loop
      vertex 3.001 10 2
      vertex 3.001 9 2
      vertex 3.001 10 1
    endloop
  endfacet
  facet normal 0 -1 0
    outer loop
      vertex 1 9 2
      vertex 1 9 1
      vertex 3.001 9 1
    endloop
  endfacet
  facet normal 0 -1 0
    outer loop
      vertex 3.001 9 2
      vertex 1 9 2
      vertex 3.001 9 1
    endloop
  endfacet
  facet normal -1 -0 -0
    outer loop
      vertex 1 9 1
      vertex 1 9 2
      vertex 1 10 1
    endloop
  endfacet
  facet normal -1 0 0
    outer loop
      vertex 1 10 1
      vertex 1 9 2
      vertex 1 10 2
    endloop
  endfacet
  facet normal 1 0 -0
    outer loop
      vertex 1.001 10.001 2
      vertex 1.001 10.001 1
      vertex 1.001 12 1
    endloop
  endfacet
  facet normal 1 0 0
    outer loop
      vertex 1.001 12 2
      vertex 1.001 10.001 2
      vertex 1.001 12 1
    endloop
  endfacet
  facet normal 0 1 0
    outer loop
      vertex 1.001 10.001 1
      vertex 1.001 10.001 2
      vertex 3 10.001 1
    endloop
  endfacet
  facet normal 0 1 0
    outer loop
      vertex 3 10.001 1
      vertex 1.001 10.001 2
      vertex 3 10.001 2
    endloop
  endfacet
  facet normal -1 -0 -0
    outer loop
      vertex 3 10.001 1
      vertex 3 10.001 2
      vertex 3 12 1
    endloop
  endfacet
  facet normal -1 0 0
    outer loop
      vertex 3 12 1
      vertex 3 10.001 2
      vertex 3 12 2
    endloop
  endfacet
  facet normal 0 -1 0
    outer loop
      vertex 1.001 12 2
      vertex 1.001 12 1
      vertex 3 12 1
    endloop
  endfacet
  facet normal 0 -1 0
    outer loop
      vertex 3 12 2
      vertex 1.001 12 2
      vertex 3 12 1
    endloop
  endfacet
  facet normal 0 1 0
    outer loop
      vertex 3.001 7.001 1
      vertex 3.001 7.001 2
      vertex 4.001 7.001 1
    endloop
  endfacet
  facet normal 0 1 0
    outer loop
      vertex 4.001 7.001 1
      vertex 3.001 7.001 2
      vertex 4.001 7.001 2
    endloop
  endfacet
  facet normal 1 0 -0
    outer loop
      vertex 3.001 7.001 2
      vertex 3.001 7.001 1
      vertex 3.001 8.001 1
    endloop
  endfacet
  facet normal 1 0 0
    outer loop
      vertex 3.001 8.001 2
      vertex 3.001 7.001 2
      vertex 3.001 8.001 1
    endloop
  endfacet
  facet normal 0 1 0
    outer loop
      vertex 1 8.001 1
      vertex 1 8.001 2
      vertex 3.001 8.001 1
    endloop
  endfacet
  facet normal 0 1 0
    outer loop
      vertex 3.001 8.001 1
      vertex 1 8.001 2
      vertex 3.001 8.001 2
    endloop
  endfacet
  facet normal -1 -0 -0
    outer loop
      vertex 1 7.001 1
      vertex 1 7.001 2
      vertex 1 8.001 1
    endloop
  endfacet
  facet normal -1 0 0
    outer loop
      vertex 1 8.001 1
      vertex 1 7.001 2
      vertex 1 8.001 2
    endloop
  endfacet
  facet normal 0 -1 0
    outer loop
      vertex 3.001 5 2
      vertex 3.001 5 1
      vertex 4.001 5 1
    endloop
  endfacet
  facet normal 0 -1 0
    outer loop
      vertex 4.001 5 2
      vertex 3.001 5 2
      vertex 4.001 5 1
    endloop
  endfacet
  facet normal 1 0 -0
    outer loop
      vertex 3.001 4 2
      vertex 3.001 4 1
      vertex 3.001 5 1
    endloop
  endfacet
  facet normal 1 0 0
    outer loop
      vertex 3.001 5 2
      vertex 3.001 4 2
      vertex 3.001 5 1
    endloop
  endfacet
  facet normal 0 -1 0
    outer loop
      vertex 1 4 2
      vertex 1 4 1
      vertex 3.001 4 1
    endloop
  endfacet
  facet normal 0 -1 0
    outer loop
      vertex 3.001 4 2
      vertex 1 4 2
      vertex 3.001 4 1
    endloop
  endfacet
  facet normal -1 -0 -0
    outer loop
      vertex 1 4 1
      vertex 1 4 2
      vertex 1 5 1
    endloop
  endfacet
  facet normal -1 0 0
    outer loop
      vertex 1 5 1
      vertex 1 4 2
      vertex 1 5 2
    endloop
  endfacet
  facet normal 1 0 -0
    outer loop
      vertex 1.001 5.001 2
      vertex 1.001 5.001 1
      vertex 1.001 7 1
    endloop
  endfacet
  facet normal 1 0 0
    outer loop
      vertex 1.001 7 2
      vertex 1.001 5.001 2
      vertex 1.001 7 1
    endloop
  endfacet
  facet normal 0 1 0
    outer loop
      vertex 1.001 5.001 1
      vertex 1.001 5.001 2
      vertex 3 5.001 1
    endloop
  endfacet
  facet normal 0 1 0
    outer loop
      vertex 3 5.001 1
      vertex 1.001 5.001 2
      vertex 3 5.001 2
    endloop
  endfacet
  facet normal -1 -0 -0
    outer loop
      vertex 3 5.001 1
      vertex 3 5.001 2
      vertex 3 7 1
    endloop
  endfacet
  facet normal -1 0 0
    outer loop
      vertex 3 7 1
      vertex 3 5.001 2
      vertex 3 7 2
    endloop
  endfacet
  facet normal 0 -1 0
    outer loop
      vertex 1.001 7 2
      vertex 1.001 7 1
      vertex 3 7 1
    endloop
  endfacet
  facet normal 0 -1 0
    outer loop
      vertex 3 7 2
      vertex 1.001 7 2
      vertex 3 7 1
    endloop
  endfacet
  facet normal 0 1 0
    outer loop
      vertex 3 3.001 1
      vertex 3 3.001 2
      vertex 4.001 3.001 1
    endloop
  endfacet
  facet normal 0 1 0
    outer loop
      vertex 4.001 3.001 1
      vertex 3 3.001 2
      vertex 4.001 3.001 2
    endloop
  endfacet
  facet normal -1 -0 -0
    outer loop
      vertex 3 1.001 1
      vertex 3 1.001 2
      vertex 3 3.001 1
    endloop
  endfacet
  facet normal -1 0 0
    outer loop
      vertex 3 3.001 1
      vertex 3 1.001 2
      vertex 3 3.001 2
    endloop
  endfacet
  facet normal 0 1 0
    outer loop
      vertex 1.001 1.001 1
      vertex 1.001 1.001 2
      vertex 3 1.001 1
    endloop
  endfacet
  facet normal 0 1 0
    outer loop
      vertex 3 1.001 1
      vertex 1.001 1.001 2
      vertex 3 1.001 2
    endloop
  endfacet
  facet normal 1 0 -0
    outer loop
      vertex 1.001 1.001 2
      vertex 1.001 1.001 1
      vertex 1.001 3.001 1
    endloop
  endfacet
  facet normal 1 0 0
    outer loop
      vertex 1.001 3.001 2
      vertex 1.001 1.001 2
      vertex 1.001 3.001 1
    endloop
  endfacet
  facet normal 0 -1 0
    outer loop
      vertex 3.001 1 2
      vertex 3.001 1 1
      vertex 4.001 1 1
    endloop
  endfacet
  facet normal 0 -1 0
    outer loop
      vertex 4.001 1 2
      vertex 3.001 1 2
      vertex 4.001 1 1
    endloop
  endfacet
  facet normal 0 -0 1
    outer loop
      vertex 1.001 12 1
      vertex 1.001 10.001 1
      vertex 3 10.001 1
    endloop
  endfacet
  facet normal 0 0 1
    outer loop
      vertex 3 12 1
      vertex 1.001 12 1
      vertex 3 10.001 1
    endloop
  endfacet
  facet normal 0 -0 1
    outer loop
      vertex 1.001 7 1
      vertex 1.001 5.001 1
      vertex 3 5.001 1
    endloop
  endfacet
  facet normal 0 0 1
    outer loop
      vertex 3 7 1
      vertex 1.001 7 1
      vertex 3 5.001 1
    endloop
  endfacet
endsolid OpenSCAD_Model
