solid OpenSCAD_Model
  facet normal -1 -0 -0
    outer loop
      vertex 0 0 0
      vertex 0 0 1
      vertex 0 3 0
    endloop
  endfacet
  facet normal -1 0 0
    outer loop
      vertex 0 3 0
      vertex 0 0 1
      vertex 0 2 1
    endloop
  endfacet
  facet normal -1 0 0
    outer loop
      vertex 0 3 0
      vertex 0 2 1
      vertex 0 2 2
    endloop
  endfacet
  facet normal -1 0 0
    outer loop
      vertex 0 3 0
      vertex 0 2 2
      vertex 0 3 2
    endloop
  endfacet
  facet normal 0 -1 0
    outer loop
      vertex 0 0 1
      vertex 0 0 0
      vertex 3 0 0
    endloop
  endfacet
  facet normal 0 -1 0
    outer loop
      vertex 1 0 1
      vertex 0 0 1
      vertex 3 0 0
    endloop
  endfacet
  facet normal 0 -1 0
    outer loop
      vertex 2 0 1
      vertex 1 0 1
      vertex 3 0 0
    endloop
  endfacet
  facet normal 0 -1 0
    outer loop
      vertex 3 0 1
      vertex 2 0 1
      vertex 3 0 0
    endloop
  endfacet
  facet normal 0 -1 0
    outer loop
      vertex 2 0 2
      vertex 1 0 1
      vertex 2 0 1
    endloop
  endfacet
  facet normal 0 -1 0
    outer loop
      vertex 1 0 2
      vertex 1 0 1
      vertex 2 0 2
    endloop
  endfacet
  facet normal 0 0 -1
    outer loop
      vertex 1 1 0
      vertex 2 1 0
      vertex 3 0 0
    endloop
  endfacet
  facet normal 0 -0 -1
    outer loop
      vertex 1 2 0
      vertex 0 3 0
      vertex 3 3 0
    endloop
  endfacet
  facet normal 0 -0 -1
    outer loop
      vertex 0 0 0
      vertex 0 3 0
      vertex 1 2 0
    endloop
  endfacet
  facet normal 0 -0 -1
    outer loop
      vertex 2 2 0
      vertex 1 2 0
      vertex 3 3 0
    endloop
  endfacet
  facet normal 0 0 -1
    outer loop
      vertex 0 0 0
      vertex 1 2 0
      vertex 1 1 0
    endloop
  endfacet
  facet normal -0 0 -1
    outer loop
      vertex 0 0 0
      vertex 1 1 0
      vertex 3 0 0
    endloop
  endfacet
  facet normal 0 0 -1
    outer loop
      vertex 3 0 0
      vertex 2 1 0
      vertex 3 3 0
    endloop
  endfacet
  facet normal 0 -0 -1
    outer loop
      vertex 2 1 0
      vertex 2 2 0
      vertex 3 3 0
    endloop
  endfacet
  facet normal 0 1 0
    outer loop
      vertex 0 3 0
      vertex 0 3 2
      vertex 1 3 1
    endloop
  endfacet
  facet normal 0 1 0
    outer loop
      vertex 0 3 0
      vertex 1 3 1
      vertex 3 3 0
    endloop
  endfacet
  facet normal 0 1 0
    outer loop
      vertex 2 3 1
      vertex 2 3 2
      vertex 3 3 0
    endloop
  endfacet
  facet normal 0 1 0
    outer loop
      vertex 3 3 0
      vertex 2 3 2
      vertex 3 3 2
    endloop
  endfacet
  facet normal 0 1 0
    outer loop
      vertex 1 3 1
      vertex 0 3 2
      vertex 1 3 2
    endloop
  endfacet
  facet normal 0 1 -0
    outer loop
      vertex 2 3 1
      vertex 3 3 0
      vertex 1 3 1
    endloop
  endfacet
  facet normal 0 -0 1
    outer loop
      vertex 0 3 2
      vertex 0 2 2
      vertex 1 2 2
    endloop
  endfacet
  facet normal 0 0 1
    outer loop
      vertex 1 3 2
      vertex 0 3 2
      vertex 1 2 2
    endloop
  endfacet
  facet normal 0 -1 0
    outer loop
      vertex 0 2 2
      vertex 0 2 1
      vertex 1 2 1
    endloop
  endfacet
  facet normal 0 -1 0
    outer loop
      vertex 1 2 2
      vertex 0 2 2
      vertex 1 2 1
    endloop
  endfacet
  facet normal 0 -0 1
    outer loop
      vertex 0 2 1
      vertex 0 0 1
      vertex 1 0 1
    endloop
  endfacet
  facet normal 0 0 1
    outer loop
      vertex 1 2 1
      vertex 0 2 1
      vertex 1 1 1
    endloop
  endfacet
  facet normal -0 0 1
    outer loop
      vertex 1 1 1
      vertex 0 2 1
      vertex 1 0 1
    endloop
  endfacet
  facet normal -1 0 0
    outer loop
      vertex 1 1 2
      vertex 1 1 1
      vertex 1 0 2
    endloop
  endfacet
  facet normal -1 0 0
    outer loop
      vertex 1 0 2
      vertex 1 1 1
      vertex 1 0 1
    endloop
  endfacet
  facet normal 0 -0 1
    outer loop
      vertex 1 1 2
      vertex 1 0 2
      vertex 2 0 2
    endloop
  endfacet
  facet normal 0 0 1
    outer loop
      vertex 2 1 2
      vertex 1 1 2
      vertex 2 0 2
    endloop
  endfacet
  facet normal 1 0 -0
    outer loop
      vertex 2 0 2
      vertex 2 0 1
      vertex 2 1 1
    endloop
  endfacet
  facet normal 1 0 0
    outer loop
      vertex 2 1 2
      vertex 2 0 2
      vertex 2 1 1
    endloop
  endfacet
  facet normal 0 -0 1
    outer loop
      vertex 2 1 1
      vertex 2 0 1
      vertex 3 0 1
    endloop
  endfacet
  facet normal 0 -0 1
    outer loop
      vertex 2 2 1
      vertex 2 1 1
      vertex 3 2 1
    endloop
  endfacet
  facet normal 0 0 1
    outer loop
      vertex 3 2 1
      vertex 2 1 1
      vertex 3 0 1
    endloop
  endfacet
  facet normal 1 0 -0
    outer loop
      vertex 3 0 1
      vertex 3 0 0
      vertex 3 3 0
    endloop
  endfacet
  facet normal 1 0 -0
    outer loop
      vertex 3 2 1
      vertex 3 0 1
      vertex 3 3 0
    endloop
  endfacet
  facet normal 1 0 0
    outer loop
      vertex 3 3 2
      vertex 3 2 1
      vertex 3 3 0
    endloop
  endfacet
  facet normal 1 0 -0
    outer loop
      vertex 3 2 2
      vertex 3 2 1
      vertex 3 3 2
    endloop
  endfacet
  facet normal 1 0 -0
    outer loop
      vertex 1 1 1
      vertex 1 1 0
      vertex 1 2 0
    endloop
  endfacet
  facet normal 1 0 0
    outer loop
      vertex 1 2 1
      vertex 1 1 1
      vertex 1 2 0
    endloop
  endfacet
  facet normal 0 -1 0
    outer loop
      vertex 1 2 1
      vertex 1 2 0
      vertex 2 2 0
    endloop
  endfacet
  facet normal 0 -1 0
    outer loop
      vertex 2 2 1
      vertex 1 2 1
      vertex 2 2 0
    endloop
  endfacet
  facet normal -1 -0 -0
    outer loop
      vertex 2 1 0
      vertex 2 1 1
      vertex 2 2 0
    endloop
  endfacet
  facet normal -1 0 0
    outer loop
      vertex 2 2 0
      vertex 2 1 1
      vertex 2 2 1
    endloop
  endfacet
  facet normal 0 1 0
    outer loop
      vertex 1 1 0
      vertex 1 1 1
      vertex 2 1 0
    endloop
  endfacet
  facet normal 0 1 0
    outer loop
      vertex 2 1 0
      vertex 1 1 1
      vertex 1 1 2
    endloop
  endfacet
  facet normal 0 1 0
    outer loop
      vertex 2 1 1
      vertex 1 1 2
      vertex 2 1 2
    endloop
  endfacet
  facet normal 0 1 0
    outer loop
      vertex 2 1 0
      vertex 1 1 2
      vertex 2 1 1
    endloop
  endfacet
  facet normal 0 -0 1
    outer loop
      vertex 2 3 2
      vertex 2 2 2
      vertex 3 2 2
    endloop
  endfacet
  facet normal 0 0 1
    outer loop
      vertex 3 3 2
      vertex 2 3 2
      vertex 3 2 2
    endloop
  endfacet
  facet normal -1 0 0
    outer loop
      vertex 2 3 2
      vertex 2 3 1
      vertex 2 2 2
    endloop
  endfacet
  facet normal -1 0 0
    outer loop
      vertex 2 2 2
      vertex 2 3 1
      vertex 2 2 1
    endloop
  endfacet
  facet normal 0 -0 1
    outer loop
      vertex 1 3 1
      vertex 1 2 1
      vertex 2 2 1
    endloop
  endfacet
  facet normal 0 0 1
    outer loop
      vertex 2 3 1
      vertex 1 3 1
      vertex 2 2 1
    endloop
  endfacet
  facet normal 1 0 -0
    outer loop
      vertex 1 2 2
      vertex 1 2 1
      vertex 1 3 1
    endloop
  endfacet
  facet normal 1 0 0
    outer loop
      vertex 1 3 2
      vertex 1 2 2
      vertex 1 3 1
    endloop
  endfacet
  facet normal 0 -1 0
    outer loop
      vertex 2 2 2
      vertex 2 2 1
      vertex 3 2 1
    endloop
  endfacet
  facet normal 0 -1 0
    outer loop
      vertex 3 2 2
      vertex 2 2 2
      vertex 3 2 1
    endloop
  endfacet
endsolid OpenSCAD_Model
